<mxfile host="app.diagrams.net" agent="Mozilla/5.0 (Macintosh; Intel Mac OS X 10.15; rv:141.0) Gecko/20100101 Firefox/141.0" version="28.0.7">
  <diagram name="Page-1" id="MHdyTk3tfqDu2vxlfcs8">
    <mxGraphModel dx="1376" dy="799" grid="1" gridSize="10" guides="1" tooltips="1" connect="1" arrows="1" fold="1" page="1" pageScale="1" pageWidth="850" pageHeight="1100" math="0" shadow="0">
      <root>
        <mxCell id="0" />
        <mxCell id="1" parent="0" />
        <mxCell id="dOLrVC7w01JdlSlqHZL3-1" value="MVP" style="rounded=0;whiteSpace=wrap;html=1;fillColor=#d5e8d4;strokeColor=#82b366;fontStyle=1;verticalAlign=top;fontSize=22;" vertex="1" parent="1">
          <mxGeometry x="80" y="40" width="720" height="340" as="geometry" />
        </mxCell>
        <mxCell id="dOLrVC7w01JdlSlqHZL3-2" value="Stretch goals" style="rounded=0;whiteSpace=wrap;html=1;fillColor=#dae8fc;strokeColor=#6c8ebf;verticalAlign=bottom;fontSize=22;fontStyle=1" vertex="1" parent="1">
          <mxGeometry x="80" y="380" width="720" height="150" as="geometry" />
        </mxCell>
        <mxCell id="dOLrVC7w01JdlSlqHZL3-13" value="" style="edgeStyle=orthogonalEdgeStyle;rounded=0;orthogonalLoop=1;jettySize=auto;html=1;" edge="1" parent="1" source="dOLrVC7w01JdlSlqHZL3-3" target="dOLrVC7w01JdlSlqHZL3-8">
          <mxGeometry relative="1" as="geometry" />
        </mxCell>
        <mxCell id="dOLrVC7w01JdlSlqHZL3-3" value="User uploads a pdf of their CV or&amp;nbsp;copy pastes the text of their CV into a textarea and submits via &#39;Analyse&#39; button" style="rounded=1;whiteSpace=wrap;html=1;" vertex="1" parent="1">
          <mxGeometry x="100" y="110" width="120" height="110" as="geometry" />
        </mxCell>
        <mxCell id="dOLrVC7w01JdlSlqHZL3-12" value="" style="edgeStyle=orthogonalEdgeStyle;rounded=0;orthogonalLoop=1;jettySize=auto;html=1;" edge="1" parent="1" source="dOLrVC7w01JdlSlqHZL3-8" target="dOLrVC7w01JdlSlqHZL3-11">
          <mxGeometry relative="1" as="geometry" />
        </mxCell>
        <mxCell id="dOLrVC7w01JdlSlqHZL3-8" value="AI analyses the CV, both on structure &amp;amp; content of text (and formatting if pdf)" style="whiteSpace=wrap;html=1;rounded=1;" vertex="1" parent="1">
          <mxGeometry x="270" y="135" width="120" height="60" as="geometry" />
        </mxCell>
        <mxCell id="dOLrVC7w01JdlSlqHZL3-16" value="" style="edgeStyle=orthogonalEdgeStyle;rounded=0;orthogonalLoop=1;jettySize=auto;html=1;" edge="1" parent="1" source="dOLrVC7w01JdlSlqHZL3-11" target="dOLrVC7w01JdlSlqHZL3-15">
          <mxGeometry relative="1" as="geometry" />
        </mxCell>
        <mxCell id="dOLrVC7w01JdlSlqHZL3-37" value="" style="edgeStyle=orthogonalEdgeStyle;rounded=0;orthogonalLoop=1;jettySize=auto;html=1;" edge="1" parent="1" source="dOLrVC7w01JdlSlqHZL3-11" target="dOLrVC7w01JdlSlqHZL3-36">
          <mxGeometry relative="1" as="geometry" />
        </mxCell>
        <mxCell id="dOLrVC7w01JdlSlqHZL3-11" value="&lt;div&gt;AI displays feedback and tips, splitting them into sections on:&lt;/div&gt;&lt;div&gt;- content&lt;/div&gt;&lt;div&gt;- structure&lt;/div&gt;&lt;div&gt;- formatting (if applicable)&amp;nbsp;&amp;nbsp;&lt;/div&gt;" style="whiteSpace=wrap;html=1;rounded=1;" vertex="1" parent="1">
          <mxGeometry x="420" y="92.5" width="120" height="145" as="geometry" />
        </mxCell>
        <mxCell id="dOLrVC7w01JdlSlqHZL3-18" value="" style="edgeStyle=orthogonalEdgeStyle;rounded=0;orthogonalLoop=1;jettySize=auto;html=1;" edge="1" parent="1" source="dOLrVC7w01JdlSlqHZL3-15" target="dOLrVC7w01JdlSlqHZL3-17">
          <mxGeometry relative="1" as="geometry" />
        </mxCell>
        <mxCell id="dOLrVC7w01JdlSlqHZL3-15" value="User has the ability to add an input to shape the rewrite (&#39;ignore your comments on structure&#39; etc) before clicking &#39;rewrite&#39;" style="whiteSpace=wrap;html=1;rounded=1;" vertex="1" parent="1">
          <mxGeometry x="580" y="112.5" width="120" height="105" as="geometry" />
        </mxCell>
        <mxCell id="dOLrVC7w01JdlSlqHZL3-21" style="edgeStyle=orthogonalEdgeStyle;rounded=0;orthogonalLoop=1;jettySize=auto;html=1;entryX=0.5;entryY=0;entryDx=0;entryDy=0;" edge="1" parent="1" source="dOLrVC7w01JdlSlqHZL3-17" target="dOLrVC7w01JdlSlqHZL3-20">
          <mxGeometry relative="1" as="geometry" />
        </mxCell>
        <mxCell id="dOLrVC7w01JdlSlqHZL3-17" value="AI rewrites CV and displays new with the original side by side" style="whiteSpace=wrap;html=1;rounded=1;" vertex="1" parent="1">
          <mxGeometry x="580" y="280" width="120" height="60" as="geometry" />
        </mxCell>
        <mxCell id="dOLrVC7w01JdlSlqHZL3-20" value="Display diffs between old and new CV?" style="rounded=1;whiteSpace=wrap;html=1;" vertex="1" parent="1">
          <mxGeometry x="580" y="420" width="120" height="60" as="geometry" />
        </mxCell>
        <mxCell id="dOLrVC7w01JdlSlqHZL3-22" value="" style="rounded=0;whiteSpace=wrap;html=1;" vertex="1" parent="1">
          <mxGeometry x="80" y="650" width="720" height="380" as="geometry" />
        </mxCell>
        <mxCell id="dOLrVC7w01JdlSlqHZL3-23" value="Upload file" style="rounded=1;whiteSpace=wrap;html=1;" vertex="1" parent="1">
          <mxGeometry x="347.5" y="740" width="185" height="30" as="geometry" />
        </mxCell>
        <mxCell id="dOLrVC7w01JdlSlqHZL3-24" value="CV Reviewer" style="rounded=0;whiteSpace=wrap;html=1;fontStyle=1;fontSize=22;" vertex="1" parent="1">
          <mxGeometry x="80" y="650" width="720" height="80" as="geometry" />
        </mxCell>
        <mxCell id="dOLrVC7w01JdlSlqHZL3-25" value="OR" style="text;html=1;align=center;verticalAlign=middle;whiteSpace=wrap;rounded=0;" vertex="1" parent="1">
          <mxGeometry x="410" y="780" width="60" height="30" as="geometry" />
        </mxCell>
        <mxCell id="dOLrVC7w01JdlSlqHZL3-26" value="" style="rounded=0;whiteSpace=wrap;html=1;" vertex="1" parent="1">
          <mxGeometry x="180" y="840" width="530" height="110" as="geometry" />
        </mxCell>
        <mxCell id="dOLrVC7w01JdlSlqHZL3-27" value="Copy + Paste your CV&#39;s text below:" style="text;html=1;align=center;verticalAlign=middle;whiteSpace=wrap;rounded=0;" vertex="1" parent="1">
          <mxGeometry x="336.25" y="810" width="207.5" height="30" as="geometry" />
        </mxCell>
        <mxCell id="dOLrVC7w01JdlSlqHZL3-28" value="Analyse" style="rounded=1;whiteSpace=wrap;html=1;" vertex="1" parent="1">
          <mxGeometry x="347.5" y="970" width="185" height="30" as="geometry" />
        </mxCell>
        <mxCell id="dOLrVC7w01JdlSlqHZL3-29" value="" style="rounded=0;whiteSpace=wrap;html=1;" vertex="1" parent="1">
          <mxGeometry x="80" y="1100" width="720" height="780" as="geometry" />
        </mxCell>
        <mxCell id="dOLrVC7w01JdlSlqHZL3-31" value="CV Reviewer" style="rounded=0;whiteSpace=wrap;html=1;fontStyle=1;fontSize=22;" vertex="1" parent="1">
          <mxGeometry x="80" y="1100" width="720" height="80" as="geometry" />
        </mxCell>
        <mxCell id="dOLrVC7w01JdlSlqHZL3-33" value="" style="rounded=0;whiteSpace=wrap;html=1;" vertex="1" parent="1">
          <mxGeometry x="100" y="1200" width="440" height="520" as="geometry" />
        </mxCell>
        <mxCell id="dOLrVC7w01JdlSlqHZL3-36" value="Is able to highlight those sections in the display?" style="whiteSpace=wrap;html=1;rounded=1;" vertex="1" parent="1">
          <mxGeometry x="420" y="420" width="120" height="60" as="geometry" />
        </mxCell>
        <mxCell id="dOLrVC7w01JdlSlqHZL3-40" value="&lt;h1 style=&quot;margin-top: 0px;&quot;&gt;Structure&lt;/h1&gt;&lt;p&gt;Lorem ipsum dolor sit amet, consectetur adipisicing elit, sed do eiusmod tempor incididunt ut labore et dolore magna aliqua.&lt;/p&gt;" style="text;html=1;whiteSpace=wrap;overflow=hidden;rounded=0;" vertex="1" parent="1">
          <mxGeometry x="560" y="1200" width="210" height="120" as="geometry" />
        </mxCell>
        <mxCell id="dOLrVC7w01JdlSlqHZL3-41" value="&lt;h1 style=&quot;margin-top: 0px;&quot;&gt;Content&lt;/h1&gt;&lt;p&gt;Lorem ipsum dolor sit amet, consectetur adipisicing elit, sed do eiusmod tempor incididunt ut labore et dolore magna aliqua.&lt;/p&gt;" style="text;html=1;whiteSpace=wrap;overflow=hidden;rounded=0;" vertex="1" parent="1">
          <mxGeometry x="560" y="1340" width="210" height="120" as="geometry" />
        </mxCell>
        <mxCell id="dOLrVC7w01JdlSlqHZL3-42" value="&lt;h1 style=&quot;margin-top: 0px;&quot;&gt;Formatting&lt;/h1&gt;&lt;p&gt;Lorem ipsum dolor sit amet, consectetur adipisicing elit, sed do eiusmod tempor incididunt ut labore et dolore magna aliqua.&lt;/p&gt;" style="text;html=1;whiteSpace=wrap;overflow=hidden;rounded=0;" vertex="1" parent="1">
          <mxGeometry x="560" y="1470" width="210" height="120" as="geometry" />
        </mxCell>
        <mxCell id="dOLrVC7w01JdlSlqHZL3-43" value="&lt;h1 style=&quot;margin-top: 0px;&quot;&gt;Summary&lt;/h1&gt;&lt;p&gt;Lorem ipsum dolor sit amet, consectetur adipisicing elit, sed do eiusmod tempor incididunt ut labore et dolore magna aliqua.&lt;/p&gt;" style="text;html=1;whiteSpace=wrap;overflow=hidden;rounded=0;" vertex="1" parent="1">
          <mxGeometry x="560" y="1600" width="210" height="120" as="geometry" />
        </mxCell>
        <mxCell id="dOLrVC7w01JdlSlqHZL3-45" value="&lt;div&gt;E.g.&amp;nbsp;don&#39;t include your recommendations on structure...&lt;/div&gt;" style="rounded=0;whiteSpace=wrap;html=1;align=left;verticalAlign=top;" vertex="1" parent="1">
          <mxGeometry x="330" y="1760" width="270" height="60" as="geometry" />
        </mxCell>
        <mxCell id="dOLrVC7w01JdlSlqHZL3-46" value="Re-write" style="rounded=1;whiteSpace=wrap;html=1;" vertex="1" parent="1">
          <mxGeometry x="405" y="1830" width="120" height="30" as="geometry" />
        </mxCell>
        <mxCell id="dOLrVC7w01JdlSlqHZL3-47" value="Add directions for re-write:" style="text;html=1;align=left;verticalAlign=middle;whiteSpace=wrap;rounded=0;" vertex="1" parent="1">
          <mxGeometry x="330" y="1730" width="190" height="30" as="geometry" />
        </mxCell>
        <mxCell id="dOLrVC7w01JdlSlqHZL3-49" value="" style="rounded=0;whiteSpace=wrap;html=1;" vertex="1" parent="1">
          <mxGeometry x="80" y="1920" width="720" height="390" as="geometry" />
        </mxCell>
        <mxCell id="dOLrVC7w01JdlSlqHZL3-50" value="CV Reviewer" style="rounded=0;whiteSpace=wrap;html=1;fontStyle=1;fontSize=22;" vertex="1" parent="1">
          <mxGeometry x="80" y="1920" width="720" height="80" as="geometry" />
        </mxCell>
        <mxCell id="dOLrVC7w01JdlSlqHZL3-51" value="" style="rounded=0;whiteSpace=wrap;html=1;" vertex="1" parent="1">
          <mxGeometry x="90" y="2040" width="350" height="270" as="geometry" />
        </mxCell>
        <mxCell id="dOLrVC7w01JdlSlqHZL3-59" value="" style="rounded=0;whiteSpace=wrap;html=1;" vertex="1" parent="1">
          <mxGeometry x="440" y="2040" width="350" height="270" as="geometry" />
        </mxCell>
        <mxCell id="dOLrVC7w01JdlSlqHZL3-60" value="Original CV:" style="text;html=1;align=left;verticalAlign=middle;whiteSpace=wrap;rounded=0;" vertex="1" parent="1">
          <mxGeometry x="90" y="2010" width="100" height="30" as="geometry" />
        </mxCell>
        <mxCell id="dOLrVC7w01JdlSlqHZL3-61" value="New CV:" style="text;html=1;align=left;verticalAlign=middle;whiteSpace=wrap;rounded=0;" vertex="1" parent="1">
          <mxGeometry x="440" y="2010" width="100" height="30" as="geometry" />
        </mxCell>
        <mxCell id="dOLrVC7w01JdlSlqHZL3-62" value="&lt;h1 style=&quot;margin-top: 0px;&quot;&gt;Heading&lt;/h1&gt;&lt;p&gt;Lorem ipsum dolor sit amet, consectetur adipisicing elit,&amp;nbsp;&lt;/p&gt;&lt;p&gt;&lt;span style=&quot;background-color: light-dark(rgb(234, 107, 102), rgb(237, 237, 237));&quot;&gt;sed do eiusmod tempor incididunt ut labore&amp;nbsp;&lt;/span&gt;&lt;/p&gt;&lt;p&gt;et dolore magna aliqua.&lt;/p&gt;" style="text;html=1;whiteSpace=wrap;overflow=hidden;rounded=0;" vertex="1" parent="1">
          <mxGeometry x="100" y="2060" width="320" height="120" as="geometry" />
        </mxCell>
        <mxCell id="dOLrVC7w01JdlSlqHZL3-63" value="&lt;h1 style=&quot;margin-top: 0px;&quot;&gt;Heading&lt;/h1&gt;&lt;p&gt;Lorem ipsum dolor sit amet, consectetur adipisicing elit,&amp;nbsp;&lt;/p&gt;&lt;p&gt;&lt;span style=&quot;background-color: rgb(185, 224, 165);&quot;&gt;something something something else&amp;nbsp;&lt;/span&gt;&lt;/p&gt;&lt;p&gt;et dolore magna aliqua.&lt;/p&gt;" style="text;html=1;whiteSpace=wrap;overflow=hidden;rounded=0;" vertex="1" parent="1">
          <mxGeometry x="450" y="2060" width="320" height="120" as="geometry" />
        </mxCell>
      </root>
    </mxGraphModel>
  </diagram>
</mxfile>
